HIERARCHY
ROOT Hips
{
	OFFSET 0.00000 0.00000 0.00000
	CHANNELS 6 Xposition Yposition Zposition Zrotation Yrotation Xrotation 
	JOINT LHipJoint
	{
		OFFSET 0 0 0
		CHANNELS 3 Zrotation Yrotation Xrotation
		JOINT LeftUpLeg
		{
			OFFSET 1.86795 -1.59681 0.65681
			CHANNELS 3 Zrotation Yrotation Xrotation
			JOINT LeftLeg
			{
				OFFSET 2.30491 -6.33268 0.00000
				CHANNELS 3 Zrotation Yrotation Xrotation
				JOINT LeftFoot
				{
					OFFSET 2.46780 -6.78022 0.00000
					CHANNELS 3 Zrotation Yrotation Xrotation
					JOINT LeftToeBase
					{
						OFFSET 0.07897 -0.21698 1.59652
						CHANNELS 3 Zrotation Yrotation Xrotation
						End Site
						{
							OFFSET 0.00000 -0.00000 0.82310
						}
					}
				}
			}
		}
	}
	JOINT RHipJoint
	{
		OFFSET 0 0 0
		CHANNELS 3 Zrotation Yrotation Xrotation
		JOINT RightUpLeg
		{
			OFFSET -1.93650 -1.59681 0.65681
			CHANNELS 3 Zrotation Yrotation Xrotation
			JOINT RightLeg
			{
				OFFSET -2.29410 -6.30299 0.00000
				CHANNELS 3 Zrotation Yrotation Xrotation
				JOINT RightFoot
				{
					OFFSET -2.48738 -6.83403 0.00000
					CHANNELS 3 Zrotation Yrotation Xrotation
					JOINT RightToeBase
					{
						OFFSET -0.08699 -0.23899 1.89395
						CHANNELS 3 Zrotation Yrotation Xrotation
						End Site
						{
							OFFSET -0.00000 -0.00000 0.96904
						}
					}
				}
			}
		}
	}
	JOINT LowerBack
	{
		OFFSET 0 0 0
		CHANNELS 3 Zrotation Yrotation Xrotation
		JOINT Spine
		{
			OFFSET 0.03629 1.99740 -0.07548
			CHANNELS 3 Zrotation Yrotation Xrotation
			JOINT Spine1
			{
				OFFSET 0.03970 1.94298 0.17218
				CHANNELS 3 Zrotation Yrotation Xrotation
				JOINT Neck
				{
					OFFSET 0 0 0
					CHANNELS 3 Zrotation Yrotation Xrotation
					JOINT Neck1
					{
						OFFSET -0.05054 1.79469 0.04241
						CHANNELS 3 Zrotation Yrotation Xrotation
						JOINT Head
						{
							OFFSET 0.05195 1.78475 -0.22133
							CHANNELS 3 Zrotation Yrotation Xrotation
							End Site
							{
								OFFSET 0.02420 1.80711 -0.07950
							}
						}
					}
				}
				JOINT LeftShoulder
				{
					OFFSET 0 0 0
					CHANNELS 3 Zrotation Yrotation Xrotation
					JOINT LeftArm
					{
						OFFSET 2.92134 1.19850 0.36056
						CHANNELS 3 Zrotation Yrotation Xrotation
						JOINT LeftForeArm
						{
							OFFSET 4.84137 -0.00000 0.00000
							CHANNELS 3 Zrotation Yrotation Xrotation
							JOINT LeftHand
							{
								OFFSET 3.24520 -0.00000 -0.00000
								CHANNELS 3 Zrotation Yrotation Xrotation
								JOINT LeftFingerBase
								{
									OFFSET 0 0 0
									CHANNELS 3 Zrotation Yrotation Xrotation
									JOINT LeftHandIndex1
									{
										OFFSET 0.52122 -0.00000 0.00000
										CHANNELS 3 Zrotation Yrotation Xrotation
										End Site
										{
											OFFSET 0.42022 -0.00000 0.00000
										}
									}
								}
								JOINT LThumb
								{
									OFFSET 0 0 0
									CHANNELS 3 Zrotation Yrotation Xrotation
									End Site
									{
										OFFSET 0.42664 -0.00000 0.42664
									}
								}
							}
						}
					}
				}
				JOINT RightShoulder
				{
					OFFSET 0 0 0
					CHANNELS 3 Zrotation Yrotation Xrotation
					JOINT RightArm
					{
						OFFSET -2.84327 1.20795 0.50191
						CHANNELS 3 Zrotation Yrotation Xrotation
						JOINT RightForeArm
						{
							OFFSET -4.72284 -0.00000 0.00000
							CHANNELS 3 Zrotation Yrotation Xrotation
							JOINT RightHand
							{
								OFFSET -3.23459 -0.00000 0.00000
								CHANNELS 3 Zrotation Yrotation Xrotation
								JOINT RightFingerBase
								{
									OFFSET 0 0 0
									CHANNELS 3 Zrotation Yrotation Xrotation
									JOINT RightHandIndex1
									{
										OFFSET -0.30742 -0.00000 0.00000
										CHANNELS 3 Zrotation Yrotation Xrotation
										End Site
										{
											OFFSET -0.24785 -0.00000 0.00000
										}
									}
								}
								JOINT RThumb
								{
									OFFSET 0 0 0
									CHANNELS 3 Zrotation Yrotation Xrotation
									End Site
									{
										OFFSET -0.25163 -0.00000 0.25163
									}
								}
							}
						}
					}
				}
			}
		}
	}
}
MOTION
Frames: 11
Frame Time: .0083333
1.6637 14.9813 -3.2939 -4.5674 -36.2894 14.1674 0.0000 0.0000 0.0000 -24.8228 -20.8022 -40.7596 9.3467 17.0257 57.2815 1.1338 -1.0493 -19.8096 0.5566 4.7790 13.2792 0.0000 0.0000 0.0000 7.8784 25.4025 -55.9068 -9.9422 -17.3772 59.2949 0.6403 -15.8109 -13.7401 -0.0000 0.0322 -0.0884 0.0403 0.4156 17.7841 0.1891 0.5160 2.3713 0.0602 0.2279 -7.4178 -5.3968 -0.6239 -13.5705 10.4961 -0.2297 -3.8235 4.0565 0.1378 1.0874 -0.0000 0.0000 0.0000 -86.4688 -7.9912 59.3300 131.7959 -52.2450 -95.2530 -0.0000 -0.0000 55.9782 68.7725 34.5295 -124.4213 -7.1250 0.0000 -0.0000 -83.2469 47.9818 -18.1022 -0.0000 0.0000 0.0000 83.9522 18.9868 54.4929 -136.4476 50.0393 -98.8767 0.0000 0.0000 14.0651 42.5315 -3.5650 -3.2647 7.1250 -0.0000 -0.0000 45.1641 -25.9623 32.0874
1.5642 15.0048 -3.1910 -3.6590 -35.6697 13.6843 0.0000 0.0000 0.0000 -25.7397 -21.1669 -39.7674 9.2528 16.9677 56.9604 1.1171 -0.9336 -19.6931 0.5607 4.7962 13.3281 0.0000 0.0000 0.0000 6.3261 25.9853 -55.5359 -8.7275 -16.6291 55.1430 0.6134 -15.8363 -14.3593 -0.0201 0.9144 -2.5133 -0.2471 0.3055 17.4789 -0.0609 0.2974 2.5160 0.0091 0.1270 -7.0949 -5.1992 -0.5338 -13.6090 10.3509 -0.1299 -3.8965 3.9840 0.1822 1.0616 0.0000 -0.0000 0.0000 -86.2961 -8.2761 59.4695 131.8745 -52.2109 -95.3151 -0.0000 -0.0000 55.3722 68.9789 34.6911 -124.0269 -7.1250 0.0000 -0.0000 -83.7082 48.0372 -18.7547 0.0000 -0.0000 0.0000 83.9964 19.3592 54.3070 -136.2897 50.1208 -98.7557 0.0000 0.0000 13.6132 42.5387 -3.8227 -3.5006 7.1250 -0.0000 -0.0000 45.2846 -26.2128 31.8010
1.4651 15.0359 -3.0915 -3.4563 -34.9165 13.4947 0.0000 0.0000 0.0000 -26.0654 -21.3923 -38.6938 9.1514 16.9042 56.6124 1.1146 -0.8254 -19.7030 0.5312 4.6704 12.9708 0.0000 0.0000 0.0000 5.4829 26.6563 -54.7892 -7.5644 -15.7893 50.9780 0.5300 -15.4822 -15.0896 -0.0940 1.9773 -5.4429 -0.4645 0.2574 17.5129 0.2199 0.2167 2.5106 0.4515 0.0976 -7.1211 -5.2704 -0.4878 -13.4419 9.6102 -0.0573 -4.0882 4.1529 0.1942 1.0696 0.0000 -0.0000 0.0000 -86.6821 -8.2899 59.8278 131.8372 -52.2271 -95.2856 -0.0000 -0.0000 55.0248 69.0808 34.5691 -123.9675 -7.1250 0.0000 -0.0000 -83.4633 47.9811 -18.2993 0.0000 -0.0000 0.0000 83.4856 19.4627 54.0372 -136.1947 50.1696 -98.6828 0.0000 0.0000 13.4116 43.0692 -3.6799 -3.4334 7.1250 -0.0000 -0.0000 45.2808 -25.7880 32.6373
1.3656 15.0665 -2.9930 -3.2794 -34.1259 13.2637 0.0000 0.0000 0.0000 -26.3922 -21.5602 -37.5659 9.0544 16.8426 56.2780 1.1369 -0.6983 -19.9405 0.4086 4.1037 11.3686 0.0000 0.0000 0.0000 4.6249 27.3524 -53.9342 -6.4932 -14.8898 46.9304 0.3538 -14.2688 -15.5809 -0.1109 2.1468 -5.9115 -0.5274 0.1600 17.6997 0.4117 0.0935 2.4216 0.7216 0.0440 -7.3180 -5.2098 -0.3982 -13.1589 9.1847 0.0548 -4.1011 3.9887 0.2366 1.0011 0.0000 -0.0000 0.0000 -86.8260 -8.1487 60.0928 131.8665 -52.2144 -95.3088 -0.0000 -0.0000 54.4499 68.9143 34.2424 -124.4205 -7.1250 0.0000 -0.0000 -82.6263 47.8485 -17.0083 0.0000 -0.0000 0.0000 83.1872 19.2964 53.9693 -136.1740 50.1802 -98.6668 0.0000 0.0000 13.1034 42.6498 -3.3812 -3.1097 7.1250 -0.0000 -0.0000 45.0945 -25.7181 32.4459
1.2664 15.0899 -2.8938 -3.0406 -33.4406 13.0738 0.0000 0.0000 0.0000 -26.7358 -21.7225 -36.5861 8.9720 16.7896 55.9931 1.1383 -0.3822 -20.0518 0.2279 3.0726 8.4809 0.0000 0.0000 0.0000 3.4207 28.3835 -53.1435 -5.5284 -13.9552 43.0582 0.2596 -13.3356 -15.3776 -0.1096 2.1348 -5.8785 -0.4398 0.0525 17.4936 0.3986 -0.0325 2.5819 0.6863 -0.0211 -7.0307 -5.2327 -0.3337 -13.4747 9.1084 0.1503 -4.0138 3.9762 0.2917 1.0775 -0.0000 0.0000 0.0000 -86.6509 -8.4081 60.2407 131.8931 -52.2028 -95.3298 -0.0000 -0.0000 53.9325 69.4967 33.8014 -123.9087 -7.1250 0.0000 -0.0000 -81.7798 47.6134 -15.3319 -0.0000 0.0000 0.0000 83.0705 19.5321 53.7933 -136.1032 50.2164 -98.6125 0.0000 0.0000 12.9715 42.1409 -2.5986 -2.3493 7.1250 -0.0000 -0.0000 44.6755 -25.2160 32.6818
1.1689 15.1061 -2.7921 -3.1124 -32.7585 13.3104 0.0000 0.0000 0.0000 -26.7356 -21.8838 -35.9845 8.9160 16.7534 55.7992 1.1016 0.4134 -19.9961 0.0151 0.7927 2.1787 0.0000 0.0000 0.0000 2.1883 29.6740 -52.6267 -4.6924 -13.0288 39.4764 0.3268 -13.4121 -14.3748 -0.2759 3.3785 -9.3343 -0.1587 -0.0844 17.0509 0.5057 -0.1507 2.6528 0.6657 -0.0847 -6.7118 -5.3820 -0.2714 -13.7571 9.0425 0.2632 -3.9675 3.9930 0.3556 1.1339 -0.0000 -0.0000 0.0000 -86.6341 -8.6625 60.3578 131.7638 -52.2589 -95.2276 -0.0000 -0.0000 53.5117 70.0283 33.8516 -123.1201 -7.1250 0.0000 -0.0000 -82.1002 47.6150 -15.5998 -0.0000 -0.0000 0.0000 82.8624 19.6731 53.7041 -136.1106 50.2127 -98.6181 0.0000 0.0000 12.7159 42.2911 -2.4832 -2.2570 7.1250 -0.0000 -0.0000 44.6460 -25.0240 32.9967
1.0708 15.1228 -2.6863 -3.3009 -32.0556 13.6034 0.0000 0.0000 0.0000 -26.6239 -21.9758 -35.3797 8.8786 16.7290 55.6693 1.0562 1.1553 -19.8681 0.0428 -1.3348 -3.6706 0.0000 0.0000 0.0000 0.8954 31.1748 -52.1207 -4.0053 -12.1675 36.3270 0.3749 -13.5001 -13.6512 -0.5995 4.9564 -13.7843 0.1292 -0.2353 16.6132 0.6940 -0.2837 2.6833 0.7290 -0.1539 -6.4392 -5.4296 -0.1310 -13.9813 8.8215 0.4637 -3.8621 3.9386 0.4585 1.1908 0.0000 0.0000 0.0000 -86.6605 -8.7633 60.3516 131.6075 -52.3263 -95.1039 -0.0000 -0.0000 53.1052 69.8944 34.0848 -123.1521 -7.1250 0.0000 -0.0000 -82.6236 47.7295 -16.5179 0.0000 0.0000 0.0000 82.7982 19.7616 53.8699 -136.1423 50.1964 -98.6425 0.0000 0.0000 12.3098 42.5926 -3.4273 -3.1457 7.1250 -0.0000 -0.0000 45.1085 -25.7940 32.3214
0.9721 15.1477 -2.5840 -3.4445 -31.4632 13.6487 0.0000 0.0000 0.0000 -26.5299 -21.9291 -34.6563 8.8699 16.7233 55.6392 1.1080 0.2862 -20.0078 0.0001 0.0663 0.1823 0.0000 0.0000 0.0000 -0.7371 33.2607 -51.4299 -3.4667 -11.4147 33.6917 0.4016 -13.7030 -13.5619 -0.6198 5.0382 -14.0177 0.3266 -0.2850 16.4267 0.8378 -0.3065 2.7634 0.7727 -0.1683 -6.2519 -5.2973 0.0651 -13.9974 8.5735 0.7171 -3.9826 3.8355 0.5779 1.1308 0.0000 -0.0000 0.0000 -86.5923 -8.8078 60.3759 131.5351 -52.3573 -95.0467 -0.0000 -0.0000 52.8283 70.1780 33.7142 -123.0001 -7.1250 0.0000 -0.0000 -81.8138 47.5424 -15.0625 0.0000 -0.0000 0.0000 82.8230 19.9314 53.9124 -136.0910 50.2227 -98.6031 0.0000 0.0000 12.2803 43.0907 -3.7929 -3.5411 7.1250 -0.0000 -0.0000 45.3356 -25.8888 32.5339
0.8731 15.1673 -2.4829 -3.3228 -30.8761 13.5579 0.0000 0.0000 0.0000 -26.6612 -21.8782 -34.0559 8.8932 16.7385 55.7200 1.1619 -0.8254 -20.1237 0.0563 1.5308 4.2107 0.0000 0.0000 0.0000 -2.6753 35.3035 -50.9349 -3.0706 -10.8085 31.6366 0.4780 -14.2953 -13.3516 -0.5240 4.6391 -12.8821 0.3857 -0.2683 16.2390 0.8950 -0.2727 2.8403 0.7905 -0.1529 -6.0678 -5.0655 0.2030 -13.8403 8.2491 0.8797 -4.2339 3.6765 0.6443 1.0045 0.0000 -0.0000 0.0000 -86.4720 -8.9114 60.5718 131.5003 -52.3722 -95.0191 -0.0000 -0.0000 52.6697 70.6940 33.4946 -122.4069 -7.1250 0.0000 -0.0000 -81.4487 47.4136 -14.2306 0.0000 -0.0000 0.0000 82.7827 20.0836 53.7056 -135.9798 50.2794 -98.5175 0.0000 0.0000 12.4855 43.7444 -3.5323 -3.3747 7.1250 -0.0000 -0.0000 45.2774 -25.2578 33.6914
0.7746 15.1782 -2.3788 -3.1566 -30.1433 13.3594 0.0000 0.0000 0.0000 -26.9068 -21.8418 -33.2963 8.9446 16.7719 55.8983 1.1646 -0.6246 -20.2086 0.0030 0.3527 0.9691 0.0000 0.0000 0.0000 -4.2407 36.8812 -50.4159 -2.7973 -10.3594 30.1486 0.5661 -14.8455 -12.8003 -0.5701 4.8355 -13.4399 0.4562 -0.3191 16.1482 0.9721 -0.3242 2.9331 0.8416 -0.1791 -5.9189 -4.9435 0.2961 -13.7800 7.9228 0.9913 -4.2738 3.5411 0.6915 0.9706 0.0000 -0.0000 0.0000 -86.3702 -8.9778 60.7356 131.6249 -52.3188 -95.1177 -0.0000 -0.0000 52.5993 70.7702 33.5951 -122.2279 -7.1250 0.0000 -0.0000 -81.7344 47.4620 -14.6594 0.0000 -0.0000 0.0000 82.6940 20.1624 53.5627 -135.9234 50.3080 -98.4742 0.0000 0.0000 12.6988 43.2907 -3.3308 -3.1328 7.1250 -0.0000 -0.0000 45.1435 -25.3161 33.3269
0.6745 15.1871 -2.2785 -3.2422 -29.3353 13.0802 0.0000 0.0000 0.0000 -26.9526 -21.6541 -32.3779 9.0424 16.8349 56.2368 1.1752 -0.2027 -20.4364 0.0180 -0.8659 -2.3799 0.0000 0.0000 0.0000 -4.9922 38.2069 -49.6104 -2.6230 -10.0582 29.1655 0.5989 -15.1538 -12.8805 -0.5425 4.7189 -13.1084 0.5946 -0.4603 16.2908 1.1720 -0.4758 3.1207 1.0068 -0.2554 -5.7941 -4.9539 0.4768 -13.9338 7.6403 1.2407 -4.2283 3.4594 0.8147 0.9937 0.0000 0.0000 0.0000 -86.4194 -9.0910 60.6365 131.7305 -52.2733 -95.2013 -0.0000 -0.0000 52.6149 70.9780 33.2434 -122.1655 -7.1250 0.0000 -0.0000 -80.9044 47.2731 -13.2219 0.0000 0.0000 0.0000 82.6084 20.4063 53.7285 -135.8817 50.3292 -98.4421 0.0000 0.0000 12.7194 42.5629 -3.1419 -2.8815 7.1250 -0.0000 -0.0000 44.9749 -25.5281 32.6070
